<svg xmlns="http://www.w3.org/2000/svg" xmlns:xlink="http://www.w3.org/1999/xlink" version="1.1" x="0px" y="0px" viewBox="0 0 512 640" style="enable-background:new 0 0 512 512;" xml:space="preserve"><g><g><g><g><path d="M435.8,148.02C399.126,92.382,330.464,55,264.946,55c-60.741,0-116.957,27.72-154.231,76.052l-23.756-18.32      c20.584-26.69,47.298-48.774,77.255-63.865C195.651,33.029,229.542,25,264.946,25c75.182,0,153.909,42.803,195.902,106.508      L435.8,148.02z"/><path d="M448.324,154.764h-41.172v-30h29.584l7.553-28.944l29.028,7.574l-10.48,40.157      C461.115,150.155,455.15,154.764,448.324,154.764z"/></g><g><path d="M323.531,467.653l-8.961-28.631C398.838,412.647,460,333.635,460,251.147c0-20.856-3.234-41.381-9.614-61.003      l28.53-9.275C486.271,203.492,490,227.137,490,251.147c0,48.72-17.017,95.733-49.211,135.958      C410.595,424.831,368.952,453.437,323.531,467.653z"/><path d="M354.022,485.662L312.857,467c-7.032-3.188-10.495-11.193-8.005-18.501l13.98-41.019l28.396,9.678l-9.59,28.138      l28.77,13.042L354.022,485.662z"/></g><g><path d="M264.946,477.296c-60.129,0-116.654-23.533-159.165-66.265c-42.489-42.711-65.889-99.492-65.889-159.884      c0-28.253,12.917-61.941,22.348-86.54l1.251-3.266l28.021,10.716l-1.26,3.29c-8.592,22.41-20.359,53.102-20.359,75.8      c0,108.156,87.501,196.148,195.054,196.148c2.687,0,5.403-0.056,8.076-0.165l1.229,29.975      C271.171,477.231,268.04,477.296,264.946,477.296z"/><path d="M84.232,212.23l-13.919-26.819l-28.05,10.51l-10.525-28.094l40.501-15.174c7.106-2.661,15.081,0.402,18.576,7.137      l20.044,38.62L84.232,212.23z"/></g></g><g><path d="M270.833,396.79c-2.222,0-4.449-0.493-6.514-1.489L143.08,336.839c-5.188-2.501-8.485-7.752-8.485-13.511V188.646     c0-5.305,2.802-10.215,7.369-12.914c4.567-2.697,10.22-2.784,14.867-0.226l121.267,66.784l-14.472,26.279l-99.031-54.539v99.877     l91.249,44l0.01-24.835l30,0.012l-0.019,48.711c-0.002,5.159-2.655,9.956-7.025,12.698     C276.381,396.019,273.612,396.79,270.833,396.79z"/><rect x="255.858" y="288.646" width="30" height="27.323"/><path d="M277.818,395.301l-13.03-27.021l112.754-54.371v-99.877l-99.031,54.539l-14.472-26.279l121.267-66.784     c4.646-2.56,10.299-2.474,14.867,0.226c4.567,2.699,7.369,7.609,7.369,12.914v134.682c0,5.759-3.297,11.01-8.485,13.511     L277.818,395.301z"/><path d="M270.862,270.431c-2.492,0-4.983-0.62-7.236-1.86l-121.267-66.784c-4.917-2.708-7.911-7.936-7.759-13.547     c0.153-5.612,3.426-10.669,8.483-13.105l121.267-58.437c4.108-1.979,8.895-1.982,13.005-0.009l121.68,58.437     c5.067,2.434,8.348,7.496,8.501,13.114c0.152,5.619-2.85,10.853-7.777,13.557l-121.68,66.784     C275.832,269.813,273.346,270.431,270.862,270.431z M182.304,189.535l88.57,48.778l88.872-48.777l-88.873-42.681L182.304,189.535     z"/></g></g></g><text x="0" y="527" fill="#000000" font-size="5px" font-weight="bold" font-family="'Helvetica Neue', Helvetica, Arial-Unicode, Arial, Sans-serif"></text><text x="0" y="532" fill="#000000" font-size="5px" font-weight="bold" font-family="'Helvetica Neue', Helvetica, Arial-Unicode, Arial, Sans-serif"></text></svg>